<?xml version="1.0" encoding="UTF-8"?>
<svg width="184px" height="36px" viewBox="0 0 184 36" version="1.1" xmlns="http://www.w3.org/2000/svg" xmlns:xlink="http://www.w3.org/1999/xlink">
    <!-- Generator: Sketch 51 (57462) - http://www.bohemiancoding.com/sketch -->
    <title>Group 29</title>
    <desc>Created with Sketch.</desc>
    <defs>
        <linearGradient x1="1.48270897%" y1="37.3515444%" x2="99.7152972%" y2="56.6100463%" id="linearGradient-1">
            <stop stop-color="#7CD0DF" offset="0%"></stop>
            <stop stop-color="#0076C0" offset="100%"></stop>
        </linearGradient>
        <linearGradient x1="-4.39884423%" y1="55.037634%" x2="100.088088%" y2="41.7622406%" id="linearGradient-2">
            <stop stop-color="#7CD0DF" offset="0%"></stop>
            <stop stop-color="#0076C0" offset="100%"></stop>
        </linearGradient>
        <linearGradient x1="20.6018633%" y1="-4.869156%" x2="68.1702838%" y2="87.3501019%" id="linearGradient-3">
            <stop stop-color="#7CD0DF" offset="0%"></stop>
            <stop stop-color="#0076C0" offset="100%"></stop>
        </linearGradient>
        <linearGradient x1="24.81549%" y1="58.5394976%" x2="124.00086%" y2="38.8028248%" id="linearGradient-4">
            <stop stop-color="#7CD0DF" offset="0%"></stop>
            <stop stop-color="#0076C0" offset="100%"></stop>
        </linearGradient>
        <linearGradient x1="49.9991429%" y1="18.4779662%" x2="49.9991429%" y2="137.184817%" id="linearGradient-5">
            <stop stop-color="#0092D7" offset="0%"></stop>
            <stop stop-color="#0076C0" offset="47.24%"></stop>
            <stop stop-color="#0065A5" offset="100%"></stop>
        </linearGradient>
        <linearGradient x1="49.9969586%" y1="-13.4871444%" x2="49.9969586%" y2="151.775711%" id="linearGradient-6">
            <stop stop-color="#0092D7" offset="0%"></stop>
            <stop stop-color="#0076C0" offset="47.24%"></stop>
            <stop stop-color="#0065A5" offset="100%"></stop>
        </linearGradient>
        <linearGradient x1="50.0006987%" y1="-13.1787938%" x2="50.0006987%" y2="148.272186%" id="linearGradient-7">
            <stop stop-color="#0092D7" offset="0%"></stop>
            <stop stop-color="#0076C0" offset="47.24%"></stop>
            <stop stop-color="#0065A5" offset="100%"></stop>
        </linearGradient>
        <linearGradient x1="49.9997544%" y1="-7.86780544%" x2="49.9997544%" y2="108.863633%" id="linearGradient-8">
            <stop stop-color="#0092D7" offset="0%"></stop>
            <stop stop-color="#0076C0" offset="47.24%"></stop>
            <stop stop-color="#0065A5" offset="100%"></stop>
        </linearGradient>
        <linearGradient x1="49.9991763%" y1="-10.6381089%" x2="49.9991763%" y2="147.190283%" id="linearGradient-9">
            <stop stop-color="#0092D7" offset="0%"></stop>
            <stop stop-color="#0076C0" offset="47.24%"></stop>
            <stop stop-color="#0065A5" offset="100%"></stop>
        </linearGradient>
        <linearGradient x1="49.9960937%" y1="18.4779662%" x2="49.9960937%" y2="137.184817%" id="linearGradient-10">
            <stop stop-color="#0092D7" offset="0%"></stop>
            <stop stop-color="#0076C0" offset="47.24%"></stop>
            <stop stop-color="#0065A5" offset="100%"></stop>
        </linearGradient>
    </defs>
    <g id="Page-1" stroke="none" stroke-width="1" fill="none" fill-rule="evenodd">
        <g id="Group-29">
            <path d="M22.8415664,13.9877042 L22.8428946,13.9870185 C18.1591227,14.3298288 9,7.76923985 9,7.76923985 C9.47550534,7.85014308 9.99993371,7.79003701 10.5538045,7.62354548 C14.1183235,6.81577018 18.2764495,2.20965692 18.2764495,2.20965692 C18.2798807,2.20565747 18.2850829,2.20108666 18.2872967,2.19777283 C20.1741541,0.135883233 23.1684209,-0.614871292 25.84823,0.548741087 C29.299075,2.048079 30.9197335,6.15003261 29.4676491,9.71194574 C28.3268127,12.5136199 25.624313,14.1466539 22.8415664,13.9877042 L22.8415664,13.9877042 Z" id="Shape" fill="url(#linearGradient-1)" opacity="0.7"></path>
            <path d="M31.498216,32.3311694 L31.4987799,32.3300125 C27.464459,35.7780077 15,36 15,36 C15.482183,35.7538303 15.9202646,35.3482519 16.3178541,34.8271079 C19.0414268,31.7101924 19.9005585,24.770359 19.9005585,24.770359 C19.901348,24.7642279 19.9032655,24.7568243 19.9031527,24.7520813 C20.3101038,21.6288034 22.5530726,18.9458084 25.7212687,18.1987389 C29.8023981,17.2384689 33.8693157,19.850667 34.8055966,24.0358987 C35.5437032,27.3264517 34.1238857,30.6099481 31.498216,32.3311694 L31.498216,32.3311694 Z" id="Shape" fill="url(#linearGradient-2)" opacity="0.7"></path>
            <path d="M52,15.5823623 C51.3823764,14.8749011 51.241912,13.8513659 49.7936491,13.6933838 C49.5992959,12.4868353 51.481099,13.0489398 51.1795202,13.6895413 C53.267934,10.8872528 46.5406619,9.38977133 44.4530211,9.97284495 C44.389525,9.88062469 44.3096856,9.7759986 44.2138341,9.66258962 C43.365416,8.66254865 41.1294704,6.9446168 35.4602088,5.96664281 C39.3833833,5.54199044 41.7350574,6.53138217 43.0665979,7.53186229 L43.0340217,7.17911977 C43.0340217,7.17911977 42.0503293,3.14338518 35.966521,2.21635192 C35.9383619,2.1858314 35.908215,2.15509131 35.8783995,2.12446101 C32.1442776,1.61615167 29.4418843,2.74508145 27.6414666,4.0558169 L27.3906847,4.24366081 C27.3906847,4.24366081 20.9203785,21.3814802 35.8925343,27 C37.127892,26.2892452 38.1397435,25.2204782 38.9447634,23.9536571 C41.6541137,24.137439 45.5619388,22.5403815 47.8987051,24.6924074 C48.4678509,23.1777993 50.1573989,21.7311487 49.6881904,19.8535879 C48.70759,19.4582484 45.819236,21.0139165 44.0524988,19.018775 C44.8063906,14.9553743 48.4596792,17.7029893 50.0273147,18.7156557 C50.6827047,17.6666502 51.6577837,17.35376 52,15.5823623 L52,15.5823623 Z M32.192701,10.1772955 C31.5465719,9.4722295 30.5864289,10.3334948 29.621339,10.3871883 C28.6569237,10.4406648 31.7193752,12.2244818 31.7193752,12.2244818 C30.2337394,12.6270203 27.892407,10.0952909 27.892407,10.0952909 C27.0825814,8.65814942 31.4919315,9.27405171 31.4919315,9.27405171 C33.1837619,10.0900843 32.8386051,10.8823615 32.192701,10.1772955 L32.192701,10.1772955 Z M39.4071019,11.2787029 C38.1674745,10.4990942 39.1566178,10.3277192 36.3103448,10.3753037 C36.3103448,10.3753037 39.8510929,8.21433065 42.5862069,11.0585656 C42.5862069,11.0585656 41.5352489,12.6171941 39.4071019,11.2787029 L39.4071019,11.2787029 Z" id="Shape" fill="url(#linearGradient-3)"></path>
            <path d="M20.3072234,27.9767234 L20.3082131,27.9756241 C13.3904572,28.3753263 0,18.824795 0,18.824795 C0.699418607,18.9496745 1.47559731,18.8749227 2.29565463,18.6469297 C7.57010671,17.5618194 13.7916332,11.0609415 13.7916332,11.0609415 C13.796032,11.0553351 13.8042799,11.0501685 13.8085688,11.0456614 C16.6290073,8.13638742 21.0623975,7.12086228 24.9938779,8.83586636 C30.0574047,11.0436826 32.3721943,16.9350036 30.1629773,21.9953704 C28.4278473,25.9772227 24.4091595,28.2578121 20.3072234,27.9767234 L20.3072234,27.9767234 Z" id="Shape" fill="url(#linearGradient-4)"></path>
            <path d="M137.343858,3 C139.338995,3 142.909224,3.97865899 142.909224,6.744648 L142.909224,8.43306403 L140.976951,8.43306403 L140.976951,7.45440504 C140.976951,6.01032623 138.87704,5.27633199 137.38545,5.27633199 C134.403221,5.27633199 132.093129,7.8949326 132.093129,11.7863139 C132.093129,15.5551992 134.424493,18.5655254 137.448631,18.5655254 C140.388633,18.5655254 142.131679,16.2158267 142.131679,16.2158267 L143.26577,17.977937 C143.26577,17.977937 141.16586,20.865767 137.427359,20.865767 C132.996084,20.865767 129.908765,16.8764543 129.908765,11.7859864 C129.9094,6.79344994 133.101492,3 137.343858,3 L137.343858,3 Z" id="Shape" fill="#58595B"></path>
            <path d="M149.845508,13.1274939 L150.287922,13.1274939 L150.287922,13.0020358 C150.287922,10.7712976 149.624149,9.96923814 148.035411,9.96923814 C147.552556,9.96923814 146.366096,10.1195195 146.366096,10.9467376 L146.366096,11.6736564 L144.535627,11.6736564 L144.535627,10.4204175 C144.535627,8.33996058 147.070006,8.0390625 148.055479,8.0390625 C151.353972,8.0390625 152.239104,10.1946601 152.239104,13.0020358 L152.239104,18.3910299 C152.239104,18.7670686 152.39965,18.9425086 152.681518,18.9425086 L153.506142,18.9425086 L153.506142,21.0229656 L151.675673,21.0229656 C150.770472,21.0229656 150.408635,20.4714868 150.408635,19.569128 C150.408635,19.1427719 150.448772,18.817386 150.448772,18.817386 L150.408635,18.817386 C150.408635,18.817386 149.60408,21.3238636 147.170347,21.3238636 C145.420759,21.3238636 143.711004,19.9954842 143.711004,17.4638478 C143.711004,13.3780746 148.136056,13.1274939 149.845508,13.1274939 L149.845508,13.1274939 Z M147.776167,19.0333807 C149.363486,19.0333807 150.389507,17.0415336 150.389507,15.3044793 L150.389507,14.9105114 L149.905761,14.9105114 C148.492567,14.9105114 145.937172,15.0031915 145.937172,17.1571512 C145.937172,18.1065797 146.537098,19.0333807 147.776167,19.0333807 L147.776167,19.0333807 Z" id="Shape" fill="#58595B"></path>
            <path d="M154.822371,10.9359817 C154.822371,10.5648367 154.655592,10.3911939 154.36278,10.3911939 L153.506142,10.3911939 L153.506142,8.33597849 L155.449057,8.33597849 C156.368554,8.33597849 156.786134,8.80653732 156.786134,9.72280151 L156.786134,10.1933603 C156.786134,10.5893588 156.765602,10.9114596 156.765602,10.9114596 L156.807297,10.9114596 C157.308898,9.4504076 158.771375,8.0390625 160.421795,8.0390625 C162.218462,8.0390625 163.242512,9.00470223 163.597866,10.8866062 L163.639561,10.8866062 C164.224867,9.3761786 165.687029,8.0390625 167.400622,8.0390625 C169.782281,8.0390625 170.88972,9.64824113 170.88972,12.8427391 L170.88972,18.2654325 C170.88972,18.6369088 171.056815,18.8102203 171.349311,18.8102203 L172.205949,18.8102203 L172.205949,20.8654357 L170.200176,20.8654357 C169.259832,20.8654357 168.863099,20.3948768 168.863099,19.2807791 L168.863099,13.3630048 C168.863099,11.6047054 168.570604,10.2182138 167.003574,10.2182138 C165.540781,10.2182138 164.412494,11.7289727 164.036293,13.4372338 C163.932056,13.9571682 163.869198,14.501956 163.869198,15.1458263 L163.869198,20.865767 L161.842577,20.865767 L161.842577,13.3630048 C161.842577,11.7286413 161.633787,10.2182138 160.024747,10.2182138 C158.478564,10.2182138 157.392288,11.7534948 156.995239,13.5363163 C156.890686,14.0317286 156.848992,14.5765164 156.848992,15.1458263 L156.848992,20.865767 L154.822055,20.865767 L154.822055,10.9359817 L154.822371,10.9359817 Z" id="Shape" fill="#58595B"></path>
            <path d="M173.492521,10.8755556 C173.492521,10.5121522 173.3295,10.3421314 173.043286,10.3421314 L172.205949,10.3421314 L172.205949,8.3297852 L174.06464,8.3297852 C174.983796,8.3297852 175.331143,8.79052876 175.331143,9.56633006 C175.331143,9.9300579 175.310765,10.2211051 175.310765,10.2211051 L175.35152,10.2211051 C175.35152,10.2211051 176.209235,8.0390625 178.782687,8.0390625 C181.559917,8.0390625 183.336788,10.6575136 183.336788,14.4641639 C183.336788,18.3675055 181.335454,20.8889408 178.639426,20.8889408 C176.352187,20.8889408 175.474095,18.9249403 175.474095,18.9249403 L175.433031,18.9249403 C175.433031,18.9249403 175.474095,19.3616733 175.474095,19.9917888 L175.474095,25.446733 L173.49283,25.446733 L173.49283,10.8755556 L173.492521,10.8755556 Z M178.186477,19.0333807 C179.78873,19.0333807 181.11062,17.4463016 181.11062,14.6814631 C181.11062,12.0363312 179.928912,10.3295455 178.246728,10.3295455 C176.74469,10.3295455 175.322584,11.6038425 175.322584,14.7059193 C175.322584,16.86965 176.303859,19.0333807 178.186477,19.0333807 L178.186477,19.0333807 Z" id="Shape" fill="#58595B"></path>
            <path d="M57.4689243,6.49299663 L56,6.49299663 L56,3.91619318 L62.5235855,3.91619318 C67.4655431,3.91619318 70.6927063,6.93591004 70.6927063,12.1384415 C70.6927063,17.340973 67.4655431,20.4076705 62.5232707,20.4076705 L59.0023856,20.4076705 C57.9197387,20.4076705 57.4689243,19.9417528 57.4689243,18.8271792 L57.4689243,6.49299663 L57.4689243,6.49299663 Z M60.9739907,18.1171875 L62.4919553,18.1171875 C65.8615321,18.1171875 68.0213051,16.1227449 68.0213051,12.3682304 C68.0213051,8.66085199 65.8145302,6.66477273 62.4919553,6.66477273 L60.4523352,6.66477273 L60.4523352,17.6009827 C60.4523352,17.9296254 60.6423291,18.1171875 60.9739907,18.1171875 L60.9739907,18.1171875 Z" id="Shape" fill="url(#linearGradient-5)"></path>
            <path d="M72.9873019,11.6488536 C72.9873019,11.2868621 72.8043607,11.1166922 72.4890321,11.1166922 L71.5831733,11.1166922 L71.5831733,8.4974974 L74.2103851,8.4974974 C75.2293578,8.4974974 75.7506927,8.9579371 75.7506927,10.0002697 L75.7506927,10.7283125 C75.7506927,11.1890905 75.7058263,11.5050719 75.7058263,11.5050719 L75.7506927,11.5050719 C76.2710797,9.73368158 77.6205471,8.49715909 79.3877143,8.49715909 L80.9330773,8.49715909 L80.8145921,11.1163539 C80.8145921,11.1163539 79.502724,11.1092494 79.0954508,11.1092494 C77.8717357,11.1092494 76.6116851,12.1106466 76.0912981,13.9540969 C75.9317381,14.5586566 75.8423212,15.2386594 75.8423212,15.9656872 L75.8423212,20.865767 L72.9876179,20.865767 L72.9876179,11.6488536 L72.9873019,11.6488536 Z" id="Shape" fill="url(#linearGradient-6)"></path>
            <path d="M82.805918,11.5758429 C82.805918,11.2221991 82.6226854,11.0559535 82.2989744,11.0559535 L81.3783108,11.0559535 L81.3783108,8.49715909 L84.1660185,8.49715909 C85.2496627,8.49715909 85.7106375,8.99358239 85.7106375,10.0852509 L85.7106375,15.6526614 C85.7106375,17.1214398 86.0796744,18.1159389 87.5304268,18.1159389 C89.6511035,18.1159389 90.8257211,16.1970084 90.8257211,14.0411035 L90.8257211,8.4974896 L93.7526213,8.4974896 L93.7526213,17.5246598 C93.7526213,17.8554985 93.9364969,18.0458712 94.2595649,18.0458712 L95.18055,18.0458712 L95.18055,20.5811995 L92.4844586,20.5811995 C91.4708928,20.5811995 90.9401611,20.0821321 90.9401611,19.2304125 L90.9401611,18.8975908 C90.9401611,18.6133537 90.9639492,18.3525828 90.9639492,18.3525828 L90.9176589,18.3525828 C90.3647464,19.6101664 88.8902059,20.865767 86.8617885,20.865767 C84.3495726,20.865767 82.8055966,19.5629038 82.8055966,16.2680676 L82.8055966,11.5758429 L82.805918,11.5758429 Z" id="Shape" fill="url(#linearGradient-7)"></path>
            <path d="M96.5884843,11.4102096 C96.5884843,11.0558052 96.4071018,10.8892021 96.0896824,10.8892021 L95.18055,10.8892021 L95.18055,8.3249045 L97.7484446,8.3249045 C98.8173965,8.3249045 99.20331,8.82239546 99.20331,9.48814567 L99.20331,9.96311372 L99.249607,9.96311372 C99.249607,9.96311372 100.227233,8.0390625 102.93275,8.0390625 C106.069209,8.0390625 108.092322,10.6278703 108.092322,14.3789256 C108.092322,18.2253719 105.819016,20.7201135 102.772297,20.7201135 C100.476159,20.7201135 99.4528695,19.1282749 99.4528695,19.1282749 L99.407841,19.1282749 C99.407841,19.1282749 99.4528695,19.5562099 99.4528695,20.1732709 L99.4528695,30.0276989 L96.5888014,30.0276989 L96.5888014,11.4102096 L96.5884843,11.4102096 Z M102.047954,18.5752841 C103.636553,18.5752841 104.975688,17.1793505 104.975688,14.7065735 C104.975688,12.3301384 103.79516,10.787642 102.093225,10.787642 C100.596117,10.787642 99.1876517,11.9642439 99.1876517,14.7301465 C99.1876517,16.6641602 100.142141,18.5752841 102.047954,18.5752841 L102.047954,18.5752841 Z" id="Shape" fill="url(#linearGradient-8)"></path>
            <path d="M116.33273,12.7180373 L116.696638,12.7180373 L116.696638,12.6249941 C116.696638,10.9356784 116.035883,10.3086059 114.555463,10.3086059 C114.031055,10.3086059 113.006711,10.4484938 113.006711,11.0968887 L113.006711,11.7220227 L110.31761,11.7220227 L110.31761,10.4714316 C110.31761,8.27102438 113.369983,8.0390625 114.578346,8.0390625 C118.450386,8.0390625 119.590417,10.1008741 119.590417,12.7412981 L119.590417,17.1421124 C119.590417,17.4655022 119.772212,17.6515886 120.090989,17.6515886 L121.004094,17.6515886 L121.004094,20.1298331 L118.406208,20.1298331 C117.335462,20.1298331 116.924835,19.5263445 116.924835,18.8317512 C116.924835,18.530653 116.9474,18.322275 116.9474,18.322275 L116.901316,18.322275 C116.901316,18.322275 116.013954,20.4076705 113.39382,20.4076705 C111.320977,20.4076705 109.428023,19.0863277 109.428023,16.7247103 C109.428023,13.0188124 114.441047,12.7180373 116.33273,12.7180373 L116.33273,12.7180373 Z M114.321795,18.1171875 C115.890425,18.1171875 116.996993,16.535452 116.996993,15.1724997 L116.996993,14.9105114 L116.489883,14.9105114 C114.967266,14.9105114 112.544657,15.1078453 112.544657,16.6672122 C112.544979,17.414262 113.122235,18.1171875 114.321795,18.1171875 L114.321795,18.1171875 Z" id="Shape" fill="url(#linearGradient-9)"></path>
            <path d="M122.437538,6.93591004 C122.437538,6.58663377 122.253755,6.42430779 121.929147,6.42430779 L121.004094,6.42430779 L121.004094,3.91619318 L123.80509,3.91619318 C124.8939,3.91619318 125.379358,4.40446714 125.379358,5.49506445 L125.379358,17.4112819 C125.379358,17.7356098 125.564433,17.9222361 125.888719,17.9222361 L126.79213,17.9222361 L126.79213,20.4076705 L124.013098,20.4076705 C122.902325,20.4076705 122.437861,19.9417528 122.437861,18.8271792 L122.437861,6.93591004 L122.437538,6.93591004 Z" id="Shape" fill="url(#linearGradient-10)"></path>
            <rect id="Rectangle-path" fill="#0076C0" x="101.413819" y="24.9886364" width="29.830646" height="1"></rect>
            <path d="M138.162503,23.8048295 C138.523416,23.6301866 138.703872,23.3185688 138.703872,22.8677971 C138.703872,22.7364258 138.640124,22.6016301 138.512628,22.46341 C138.384804,22.3255013 138.151715,22.2560799 137.812051,22.2560799 C137.472387,22.2560799 137.202683,22.3326613 137.002285,22.4852015 C136.802541,22.6383643 136.702178,22.8379117 136.702178,23.0847777 C136.702178,23.3310211 136.741408,23.5287007 136.819867,23.6762599 C136.961094,23.9492757 137.208241,24.2154427 137.561635,24.4750723 L138.056256,24.8501966 C138.495628,25.1786249 138.793774,25.4516406 138.950692,25.6686212 C139.260607,26.1056955 139.415891,26.5496184 139.415891,27.0000789 C139.415891,27.8384271 139.070343,28.4859445 138.379901,28.9432537 C137.755822,29.361027 136.970901,29.5696023 136.025466,29.5696023 C134.856095,29.5696023 134.073136,29.2558054 133.676589,28.6279003 C133.539285,28.4078066 133.470633,28.1512901 133.470633,27.8580394 C133.470633,27.3291298 133.65109,26.9163374 134.012003,26.6199737 C134.372916,26.3245439 134.777308,26.1760507 135.224527,26.1760507 C135.672072,26.1760507 135.991794,26.2896776 136.184346,26.51662 C136.258883,26.6022292 136.300074,26.7105639 136.30792,26.8425578 C135.691687,26.8425578 135.264083,27.0115972 135.024455,27.3502986 C134.93815,27.4720194 134.894997,27.608683 134.894997,27.7593553 C134.894997,28.0457572 134.996014,28.284218 135.198047,28.4744262 C135.400079,28.665257 135.695283,28.7608281 136.083984,28.7608281 C136.472684,28.7608281 136.79731,28.6440882 137.058187,28.4106084 C137.319065,28.1771285 137.449503,27.8810761 137.449503,27.5227624 C137.449503,27.1644487 137.38837,26.8690189 137.266758,26.6374069 C137.145146,26.4057949 136.992151,26.1894369 136.807771,25.9886442 C136.623392,25.7878516 136.425282,25.5963981 136.213441,25.4139725 C136.001601,25.231547 135.803164,25.0466309 135.619112,24.8595357 C135.191181,24.4252633 134.97738,24.0028204 134.97738,23.5918959 C134.97738,23.0726368 135.245122,22.6408547 135.780934,22.2974837 C136.316419,21.9538014 136.976459,21.7819602 137.761706,21.7819602 C138.731006,21.7819602 139.342989,22.0288262 139.597982,22.5219356 C139.668596,22.653307 139.703902,22.8397795 139.703902,23.0819759 C139.703902,23.3232384 139.615636,23.5399077 139.438775,23.730116 C139.262241,23.9209468 139.041575,24.0165179 138.776774,24.0165179 C138.512628,24.0171405 138.307326,23.9464739 138.162503,23.8048295 L138.162503,23.8048295 Z" id="Shape" fill="#0076C0"></path>
            <path d="M143.711004,27.7257733 C143.227858,28.9549926 142.421294,29.5696023 141.290702,29.5696023 C140.994108,29.5696023 140.728911,29.4753539 140.495111,29.2871643 C140.264359,29.0995886 140.149136,28.7959677 140.149136,28.3775297 C140.149136,28.189954 140.178704,27.9722925 140.236925,27.7257733 L140.9999,24.5305398 L142.619125,24.5305398 L141.812255,27.9158049 C141.782992,28.0358411 141.768361,28.1537282 141.768361,28.2706944 C141.768361,28.4944958 141.920163,28.6065501 142.223768,28.6065501 C142.443546,28.6065501 142.647473,28.5221257 142.835854,28.3535838 C143.024236,28.185042 143.158968,27.9759765 143.239137,27.7257733 L143.711004,27.7257733 L143.711004,27.7257733 Z M143.26577,23.1649689 C143.26577,23.420841 143.177482,23.635432 143.000906,23.8105212 C142.824329,23.9848986 142.613166,24.0724432 142.367112,24.0724432 C142.121361,24.0724432 141.912928,23.9841869 141.741509,23.8076742 C141.570091,23.6311616 141.484836,23.4162147 141.484836,23.164613 C141.484836,22.9130113 141.56918,22.6962851 141.738779,22.5133667 C141.908377,22.3311601 142.117417,22.2400568 142.366808,22.2400568 C142.6162,22.2400568 142.828274,22.3304484 143.003333,22.5105198 C143.178392,22.6916587 143.26577,22.9090967 143.26577,23.1649689 L143.26577,23.1649689 Z" id="Shape" fill="#0076C0"></path>
            <path d="M147.922601,28.5217963 C147.922601,28.8308869 148.071205,28.9854322 148.368743,28.9854322 C148.642174,28.9854322 148.8522,28.9083257 148.998823,28.7537804 C149.145445,28.5992352 149.290417,28.3586098 149.432746,28.0319044 L149.944273,28.0319044 C149.472374,29.24334 148.834368,29.9014038 148.029596,30.0064281 C147.902457,30.0207194 147.746258,30.0276989 147.559678,30.0276989 C147.373097,30.0276989 147.189159,29.9921368 147.006871,29.9220098 C146.499307,29.7325672 146.24569,29.3623233 146.24569,28.8112779 C146.24569,28.5164786 146.336503,28.0458633 146.519121,27.4000967 C146.701408,26.7543301 146.792552,26.3083091 146.792552,26.0630307 C146.792552,25.6944485 146.645929,25.5099913 146.352684,25.5099913 C146.059109,25.5099913 145.797567,25.7150546 145.567726,26.1261783 C145.500359,26.2425027 145.44488,26.3684654 145.40129,26.5053958 L144.574722,29.9645513 L142.820537,29.9645513 L144.110748,24.5727489 L145.864934,24.5727489 L145.734162,25.1311061 C146.130439,24.7312825 146.60432,24.5305398 147.155475,24.5305398 C147.543826,24.5305398 147.866792,24.6252611 148.124702,24.8147037 C148.382612,25.0041463 148.511072,25.285319 148.511072,25.6572247 C148.511072,26.0291305 148.443705,26.4505572 148.308971,26.9211725 L148.017708,27.9637715 C147.954303,28.1920997 147.922601,28.3778864 147.922601,28.5217963 L147.922601,28.5217963 Z" id="Shape" fill="#0076C0"></path>
            <path d="M152.510553,29.2347919 C152.096772,29.6112338 151.620795,29.7991368 151.083267,29.7991368 C150.363662,29.7991368 149.880273,29.5047236 149.632455,28.917487 C149.543834,28.7057384 149.49904,28.4647393 149.49904,28.1948075 C149.49904,27.9248758 149.52611,27.6546261 149.580249,27.3837405 C149.634711,27.1134909 149.717532,26.844195 149.829678,26.5752171 C150.077495,25.984801 150.431014,25.4958081 150.891522,25.1098279 C151.352031,24.7238478 151.906962,24.5305398 152.556959,24.5305398 C152.897265,24.5305398 153.142826,24.5801385 153.293644,24.6790181 C153.444783,24.7782157 153.51987,24.9031664 153.51987,25.0548242 L153.51987,25.114915 L153.647484,24.5807744 L155.359326,24.5807744 L154.181468,29.3661015 C154.54111,29.2618169 154.837911,29.1034824 155.072193,28.890462 C155.306476,28.6768058 155.508532,28.3432859 155.678685,27.8902202 L156.177543,27.8902202 C155.875908,28.7769571 155.365127,29.3613323 154.645844,29.6433458 C154.448621,29.7209234 154.259133,29.7794245 154.077056,29.819803 L153.897235,30.5650562 C153.746096,31.227009 153.444783,31.7039202 152.991687,31.9957898 C152.659115,32.2107178 152.278204,32.3181818 151.848633,32.3181818 C151.419383,32.3181818 151.07521,32.2361531 150.815792,32.0717777 C150.556695,31.9070844 150.427147,31.6431935 150.427147,31.280741 C150.427147,30.6528079 151.073277,30.1523691 152.365215,29.7797424 L152.510553,29.2347919 L152.510553,29.2347919 Z M152.615674,30.4857955 C151.725455,30.7594293 151.279974,31.0899501 151.279974,31.478078 C151.279974,31.6343373 151.366399,31.7502717 151.540363,31.826241 C151.597857,31.8485638 151.682798,31.8600852 151.794076,31.8600852 C151.905353,31.8600852 152.034435,31.7758348 152.181692,31.6062539 C152.328579,31.437393 152.446533,31.1760007 152.535555,30.822077 L152.615674,30.4857955 L152.615674,30.4857955 Z M153.506142,25.8815739 C153.506142,25.7061941 153.419828,25.5784483 153.248199,25.4983365 C153.184214,25.4644153 153.102232,25.446733 153.002254,25.446733 C152.742313,25.446733 152.504366,25.5629311 152.288081,25.7956883 C151.767865,26.3561098 151.441938,27.1601144 151.309967,28.2084239 C151.289638,28.3682866 151.279974,28.5382534 151.279974,28.7172419 C151.279974,29.064032 151.355957,29.3058108 151.507923,29.4432999 C151.596236,29.5270203 151.703879,29.5696023 151.832183,29.5696023 C152.060466,29.5696023 152.272085,29.4866036 152.468041,29.3209671 C152.663997,29.1546089 152.801966,28.9333993 152.881948,28.6548125 L153.506142,25.8815739 L153.506142,25.8815739 Z" id="Shape" fill="#0076C0"></path>
            <path d="M162.410812,28.0353063 C161.924247,29.363568 161.155593,30.0276989 160.104226,30.0276989 C159.4269,30.0276989 159.050988,29.6979556 158.97618,29.0394642 C158.474965,29.6976238 157.890214,30.0276989 157.222239,30.0276989 C156.554264,30.0276989 156.10074,29.7205135 155.861353,29.1078013 C155.775636,28.8868667 155.732309,28.6354125 155.732309,28.3537706 C155.732309,28.0721287 155.758492,27.7901551 155.810858,27.507518 C155.863535,27.2255443 155.943642,26.9445659 156.052114,26.6639192 C156.291812,26.0478897 156.633748,25.5376833 157.079169,25.1349586 C157.524589,24.7322339 158.061338,24.5305398 158.690039,24.5305398 C159.019195,24.5305398 159.256711,24.5822902 159.402587,24.6854594 C159.548775,24.7889603 159.621401,24.9193317 159.621401,25.0775686 L159.621401,25.1558578 L159.744834,24.5829537 L161.400589,24.5829537 L160.575829,28.2409812 C160.542165,28.3633909 160.525333,28.4794977 160.525333,28.5876429 C160.525333,28.8961552 160.682431,29.0504114 160.996625,29.0504114 C161.404642,29.0504114 161.715096,28.712043 161.928299,28.035638 L162.410812,28.035638 L162.410812,28.0353063 Z M159.739411,25.8435228 C159.739411,25.7790485 159.704419,25.6969319 159.634434,25.5971731 C159.56445,25.4970935 159.415483,25.446733 159.187535,25.446733 C158.959252,25.446733 158.737302,25.5500202 158.521351,25.7569155 C158.001134,26.2550679 157.675207,26.9697387 157.543237,27.9015693 C157.522908,28.0436695 157.513243,28.1947512 157.513243,28.353852 C157.513243,28.6621099 157.589226,28.8770244 157.741192,28.9992369 C157.829506,29.0736551 157.939481,29.1115057 158.071118,29.1115057 C158.315063,29.1115057 158.537014,29.0293891 158.737302,28.8645144 C158.937257,28.7002813 159.075226,28.4760646 159.151209,28.1909019 L159.739411,25.8435228 L159.739411,25.8435228 Z" id="Shape" fill="#0076C0"></path>
            <path d="M163.886643,29.386952 L163.28232,31.9397503 L161.520345,32.3181818 L163.470459,24.0724432 L165.152935,24.0724432 L164.964796,24.8599811 C165.352475,24.5596899 165.806668,24.4095443 166.327691,24.4095443 C167.000744,24.4095443 167.44005,24.6995029 167.644975,25.2790973 C167.717507,25.4902698 167.753614,25.7337317 167.753614,26.0081914 C167.753614,26.2826512 167.735244,26.5574338 167.699137,26.8318935 C167.663029,27.1063532 167.601267,27.3811358 167.513849,27.6555955 C167.426431,27.9300553 167.311458,28.1935366 167.168929,28.4457166 C167.0264,28.6978967 166.848397,28.9226308 166.635553,29.1186273 C166.422393,29.3146238 166.170592,29.4705815 165.879833,29.5865004 C165.589073,29.7024193 165.2261,29.7605401 164.790594,29.7605401 C164.355406,29.7611859 164.053878,29.636226 163.886643,29.386952 L163.886643,29.386952 Z M166.417914,26.310146 C166.417914,25.7342164 166.208543,25.446733 165.789803,25.446733 C165.647513,25.446733 165.498108,25.4887646 165.341588,25.5734695 C165.185069,25.6588162 165.04786,25.787157 164.929624,25.9600963 L164.191746,28.8727917 C164.264924,29.0319344 164.442448,29.1115057 164.725335,29.1115057 C165.007883,29.1115057 165.260957,29.0130041 165.484556,28.8163217 C165.919558,28.4303367 166.200074,27.8781502 166.326441,27.1594415 C166.387423,26.8408353 166.417914,26.5575229 166.417914,26.310146 L166.417914,26.310146 Z" id="Shape" fill="#0076C0"></path>
            <path d="M174.432117,25.9131736 C173.964377,26.3668916 173.279426,26.6633119 172.377894,26.8030954 C172.287364,27.780258 171.983396,28.5617898 171.466618,29.1480212 C170.949526,29.7345831 170.330902,30.0276989 169.61043,30.0276989 C168.719901,30.0276989 168.146541,29.724339 167.889724,29.1169582 C167.799194,28.9038132 167.753614,28.6685275 167.753614,28.4101098 C167.753614,28.1516921 167.77719,27.8893089 167.824655,27.6219689 C167.872121,27.3546288 167.946306,27.0796883 168.048152,26.7971472 C168.27825,26.1587035 168.612081,25.6405462 169.049959,25.242345 C169.570823,24.7678082 170.196992,24.5305398 170.929408,24.5305398 C171.92147,24.5305398 172.417816,25.1012397 172.417816,26.2429701 L172.417816,26.2532143 C172.455222,26.2601539 172.519348,26.2634585 172.609879,26.2634585 C172.817344,26.2634585 173.084534,26.2026543 173.410821,26.0800546 C173.737108,25.9581158 174.043905,25.8044531 174.330585,25.6190665 L174.432117,25.9131736 L174.432117,25.9131736 Z M171.703644,27.007418 C171.471127,26.9619006 171.354869,26.8119426 171.354869,26.5581676 C171.354869,26.3050162 171.490152,26.1301172 171.760716,26.034406 C171.743806,25.8205367 171.700473,25.6690199 171.630718,25.5801675 C171.560963,25.491315 171.424624,25.446733 171.221701,25.446733 C170.823957,25.446733 170.443476,25.7884251 170.079905,26.4714976 C169.716334,27.15457 169.534548,27.7618841 169.534548,28.2915693 C169.534548,28.617985 169.572244,28.8243721 169.648693,28.9113539 C169.724789,28.9989593 169.804761,29.0538295 169.889664,29.0769 C169.974568,29.0999705 170.08836,29.1115057 170.23245,29.1115057 C170.528379,29.1115057 170.822196,28.9088598 171.11425,28.5038798 C171.4056,28.0992116 171.602182,27.600391 171.703644,27.007418 L171.703644,27.007418 Z" id="Shape" fill="#0076C0"></path>
            <path d="M173.54165,29.5689811 L174.75625,24.5305398 L176.407632,24.5305398 L176.261831,25.1554146 C176.452088,25.0078919 176.662241,24.8672019 176.891669,24.7327234 C177.121097,24.5982449 177.369177,24.5308503 177.636221,24.5308503 C177.902644,24.5308503 178.103471,24.6078727 178.238081,24.7625385 C178.37238,24.9165832 178.439219,25.0641058 178.439219,25.205417 C178.439219,25.4479753 178.365852,25.6445686 178.218185,25.7955075 C178.070829,25.9464465 177.892696,26.0219159 177.683475,26.0219159 C177.474565,26.0219159 177.336535,25.9799884 177.269386,25.896444 C177.202236,25.8128997 177.160889,25.7278024 177.146278,25.6405311 C177.131356,25.553881 177.112082,25.4852441 177.087833,25.43431 C177.063585,25.3833759 177.01229,25.3579088 176.933949,25.3579088 C176.777266,25.3579088 176.639236,25.3902085 176.519859,25.4538762 C176.400171,25.518165 176.264007,25.6141323 176.111366,25.7420888 L175.193344,29.5696023 L173.54165,29.5696023 L173.54165,29.5689811 Z" id="Shape" fill="#0076C0"></path>
            <path d="M180.1707,28.1290394 C180.1707,28.7199017 180.418281,29.0154974 180.913761,29.0154974 C181.130871,29.0154974 181.366073,28.9582216 181.619685,28.8433409 C181.87298,28.7287893 182.092946,28.5964625 182.279584,28.4473479 C182.070092,29.5003666 181.395592,30.0276989 180.256401,30.0276989 C179.707596,30.0276989 179.267981,29.8966887 178.936286,29.6336809 C178.604908,29.3713315 178.439219,28.9374838 178.439219,28.3324672 C178.439219,27.5190851 178.665851,26.7317076 179.119432,25.9703346 C179.466363,25.3896766 179.938672,24.9762376 180.536993,24.7293592 C180.845518,24.5970324 181.165469,24.5305398 181.496847,24.5305398 C182.037716,24.5305398 182.405597,24.6236952 182.60017,24.809677 C182.794109,24.9959879 182.891554,25.2435246 182.891554,25.5529455 C182.891554,26.1648748 182.623658,26.6833194 182.088502,27.1069628 C181.553029,27.5312645 180.923601,27.7639885 180.199902,27.8057932 C180.179905,27.9032279 180.1707,28.0108669 180.1707,28.1290394 L180.1707,28.1290394 Z M182.446321,25.3908842 C182.446321,25.1226048 182.34477,24.9886364 182.142662,24.9886364 C181.7573,25.0033695 181.386162,25.4121273 181.028917,26.2152525 C180.87808,26.5592532 180.757013,26.9138755 180.665386,27.2791193 C181.133775,27.2650715 181.547915,27.0721707 181.907145,26.7007595 C182.266706,26.3303763 182.446321,25.8935227 182.446321,25.3908842 L182.446321,25.3908842 Z" id="Shape" fill="#0076C0"></path>
        </g>
    </g>
</svg>